<mxfile host="app.diagrams.net" agent="Mozilla/5.0 (Macintosh; Intel Mac OS X 10.15; rv:130.0) Gecko/20100101 Firefox/130.0" version="24.7.17">
  <diagram name="Page-1" id="tyMOgFrmxaTwiUNuVPUB">
    <mxGraphModel dx="2901" dy="1094" grid="1" gridSize="10" guides="1" tooltips="1" connect="1" arrows="1" fold="1" page="1" pageScale="1" pageWidth="827" pageHeight="1169" math="0" shadow="0">
      <root>
        <mxCell id="0" />
        <mxCell id="1" parent="0" />
        <mxCell id="GTPjILWFsiFqRcW6VxcC-1" value="" style="rounded=0;whiteSpace=wrap;html=1;" vertex="1" parent="1">
          <mxGeometry x="-510" y="200" width="1140" height="560" as="geometry" />
        </mxCell>
        <mxCell id="GTPjILWFsiFqRcW6VxcC-3" value="&lt;font style=&quot;font-size: 18px;&quot;&gt;Parsing of the source file&lt;br&gt;&lt;/font&gt;" style="rounded=0;whiteSpace=wrap;html=1;" vertex="1" parent="1">
          <mxGeometry x="-490" y="445" width="180" height="100" as="geometry" />
        </mxCell>
        <mxCell id="GTPjILWFsiFqRcW6VxcC-6" value="&lt;div style=&quot;font-size: 18px;&quot;&gt;Sources&lt;/div&gt;&lt;div&gt;&lt;br&gt;&lt;/div&gt;" style="whiteSpace=wrap;html=1;shape=mxgraph.basic.document" vertex="1" parent="1">
          <mxGeometry x="-450" y="630" width="100" height="100" as="geometry" />
        </mxCell>
        <mxCell id="GTPjILWFsiFqRcW6VxcC-7" value="" style="html=1;shadow=0;dashed=0;align=center;verticalAlign=middle;shape=mxgraph.arrows2.arrow;dy=0.6;dx=40;direction=north;notch=0;" vertex="1" parent="1">
          <mxGeometry x="-414" y="550" width="28" height="80" as="geometry" />
        </mxCell>
        <mxCell id="GTPjILWFsiFqRcW6VxcC-11" value="" style="shape=image;verticalLabelPosition=bottom;labelBackgroundColor=default;verticalAlign=top;aspect=fixed;imageAspect=0;image=https://static.thenounproject.com/png/3365226-200.png;" vertex="1" parent="1">
          <mxGeometry x="-190" y="410" width="160" height="160" as="geometry" />
        </mxCell>
        <mxCell id="GTPjILWFsiFqRcW6VxcC-12" value="&lt;font style=&quot;font-size: 18px;&quot;&gt;Generation of the intermediate AST&lt;/font&gt;" style="text;html=1;align=center;verticalAlign=middle;whiteSpace=wrap;rounded=0;" vertex="1" parent="1">
          <mxGeometry x="-190" y="320" width="170" height="95" as="geometry" />
        </mxCell>
        <mxCell id="GTPjILWFsiFqRcW6VxcC-13" value="" style="html=1;shadow=0;dashed=0;align=center;verticalAlign=middle;shape=mxgraph.arrows2.arrow;dy=0.6;dx=40;direction=north;notch=0;rotation=90;" vertex="1" parent="1">
          <mxGeometry x="-260" y="455" width="28" height="80" as="geometry" />
        </mxCell>
        <mxCell id="GTPjILWFsiFqRcW6VxcC-14" value="" style="html=1;verticalLabelPosition=bottom;align=center;labelBackgroundColor=#ffffff;verticalAlign=top;strokeWidth=2;shadow=0;dashed=0;shape=mxgraph.ios7.icons.settings;" vertex="1" parent="1">
          <mxGeometry x="90" y="430" width="150" height="140" as="geometry" />
        </mxCell>
        <mxCell id="GTPjILWFsiFqRcW6VxcC-15" value="" style="html=1;verticalLabelPosition=bottom;align=center;labelBackgroundColor=#ffffff;verticalAlign=top;strokeWidth=2;shadow=0;dashed=0;shape=mxgraph.ios7.icons.settings;" vertex="1" parent="1">
          <mxGeometry x="420" y="430" width="150" height="140" as="geometry" />
        </mxCell>
        <mxCell id="GTPjILWFsiFqRcW6VxcC-18" value="" style="html=1;shadow=0;dashed=0;align=center;verticalAlign=middle;shape=mxgraph.arrows2.arrow;dy=0.6;dx=40;direction=north;notch=0;rotation=90;" vertex="1" parent="1">
          <mxGeometry x="10" y="465" width="28" height="80" as="geometry" />
        </mxCell>
        <mxCell id="GTPjILWFsiFqRcW6VxcC-19" value="" style="html=1;shadow=0;dashed=0;align=center;verticalAlign=middle;shape=mxgraph.arrows2.arrow;dy=0.6;dx=40;direction=north;notch=0;rotation=90;" vertex="1" parent="1">
          <mxGeometry x="320" y="465" width="28" height="80" as="geometry" />
        </mxCell>
        <mxCell id="GTPjILWFsiFqRcW6VxcC-29" value="" style="shape=image;verticalLabelPosition=bottom;labelBackgroundColor=default;verticalAlign=top;aspect=fixed;imageAspect=0;image=https://static.thenounproject.com/png/3365226-200.png;" vertex="1" parent="1">
          <mxGeometry x="70" y="500" width="100" height="100" as="geometry" />
        </mxCell>
        <mxCell id="GTPjILWFsiFqRcW6VxcC-20" value="&lt;font style=&quot;font-size: 18px;&quot;&gt;First visit of the AST to generate the entities&lt;/font&gt;" style="text;html=1;align=center;verticalAlign=middle;whiteSpace=wrap;rounded=0;" vertex="1" parent="1">
          <mxGeometry x="80" y="320" width="170" height="95" as="geometry" />
        </mxCell>
        <mxCell id="GTPjILWFsiFqRcW6VxcC-21" value="&lt;font style=&quot;font-size: 18px;&quot;&gt;Second visit of the AST to resolve dependencies&amp;nbsp; (Symbol RÃ©solution)&lt;br&gt;&lt;/font&gt;" style="text;html=1;align=center;verticalAlign=middle;whiteSpace=wrap;rounded=0;" vertex="1" parent="1">
          <mxGeometry x="420" y="320" width="170" height="95" as="geometry" />
        </mxCell>
        <mxCell id="GTPjILWFsiFqRcW6VxcC-22" value="" style="shape=datastore;whiteSpace=wrap;html=1;" vertex="1" parent="1">
          <mxGeometry x="270" y="620" width="120" height="110" as="geometry" />
        </mxCell>
        <mxCell id="GTPjILWFsiFqRcW6VxcC-23" value="&lt;font style=&quot;font-size: 18px;&quot;&gt;Model&lt;/font&gt;" style="text;html=1;align=center;verticalAlign=middle;whiteSpace=wrap;rounded=0;" vertex="1" parent="1">
          <mxGeometry x="244" y="650" width="170" height="95" as="geometry" />
        </mxCell>
        <mxCell id="GTPjILWFsiFqRcW6VxcC-24" value="" style="endArrow=classic;html=1;rounded=0;entryX=0.408;entryY=0;entryDx=0;entryDy=0;entryPerimeter=0;" edge="1" parent="1" source="GTPjILWFsiFqRcW6VxcC-14" target="GTPjILWFsiFqRcW6VxcC-22">
          <mxGeometry width="50" height="50" relative="1" as="geometry">
            <mxPoint x="290" y="680" as="sourcePoint" />
            <mxPoint x="340" y="630" as="targetPoint" />
          </mxGeometry>
        </mxCell>
        <mxCell id="GTPjILWFsiFqRcW6VxcC-25" value="" style="endArrow=classic;html=1;rounded=0;entryX=0.667;entryY=0;entryDx=0;entryDy=0;entryPerimeter=0;" edge="1" parent="1" source="GTPjILWFsiFqRcW6VxcC-15" target="GTPjILWFsiFqRcW6VxcC-22">
          <mxGeometry width="50" height="50" relative="1" as="geometry">
            <mxPoint x="222" y="580" as="sourcePoint" />
            <mxPoint x="329" y="740" as="targetPoint" />
          </mxGeometry>
        </mxCell>
        <mxCell id="GTPjILWFsiFqRcW6VxcC-26" value="&lt;h1&gt;Classic parsing flow&lt;br&gt;&lt;/h1&gt;" style="text;html=1;align=center;verticalAlign=middle;whiteSpace=wrap;rounded=0;" vertex="1" parent="1">
          <mxGeometry x="-300" y="230" width="680" height="30" as="geometry" />
        </mxCell>
        <mxCell id="GTPjILWFsiFqRcW6VxcC-30" value="" style="shape=image;verticalLabelPosition=bottom;labelBackgroundColor=default;verticalAlign=top;aspect=fixed;imageAspect=0;image=https://static.thenounproject.com/png/3365226-200.png;" vertex="1" parent="1">
          <mxGeometry x="400" y="500" width="100" height="100" as="geometry" />
        </mxCell>
      </root>
    </mxGraphModel>
  </diagram>
</mxfile>
